<?xml version="1.0" encoding="UTF-8"?> <svg xmlns="http://www.w3.org/2000/svg" id="_レイヤー_1" width="500" height="500" viewBox="0 0 500 500"><defs><style>.cls-1{fill:#bce2e8;stroke-width:0px;}</style></defs><path class="cls-1" d="M469.33,278.11c11.57,8.95,14.55,25.42,6.5,37.94-3.7,5.77-9.15,9.74-15.2,11.7-.59-3.01-2.05-5.92-4.38-8.25-6.22-6.22-16.3-6.22-22.52,0s-6.22,16.32,0,22.54c3.11,3.1,7.18,4.66,11.27,4.66,3.12,0,6.24-.92,8.92-2.75,2.88,5.67,3.92,12.32,2.48,19.01-3.17,14.57-16.93,24.09-31.45,22.23,7.9,11.14,6.86,26.66-3.12,36.64-9.98,9.96-25.5,11-36.62,3.1,1.87,14.52-7.66,28.3-22.23,31.47-2.04.44-4.07.65-6.07.65-4.57,0-9-1.14-12.92-3.15,1.71-2.53,2.71-5.6,2.71-8.9,0-8.8-7.14-15.93-15.92-15.93s-15.93,7.13-15.93,15.93c0,7.76,5.55,14.22,12.89,15.62-1.94,6.07-5.92,11.52-11.68,15.23-12.54,8.08-29.02,5.08-37.98-6.51-2.29,13.47-14.03,23.69-28.15,23.66-14.08-.03-25.75-10.26-28.03-23.67-8.94,11.56-25.42,14.57-37.96,6.5-5.76-3.7-9.72-9.15-11.68-15.19,3.02-.59,5.9-2.04,8.23-4.37,6.22-6.22,6.22-16.32,0-22.54s-16.3-6.22-22.52,0c-5.48,5.48-6.12,13.98-1.92,20.19-3.94,2.01-8.35,3.13-12.93,3.13-2.01,0-4.04-.2-6.07-.65-14.57-3.15-24.11-16.93-22.25-31.45-11.11,7.89-26.64,6.85-36.61-3.11-9.98-9.97-11.02-25.5-3.12-36.63-14.52,1.88-28.3-7.66-31.45-22.23-1.46-6.69-.42-13.35,2.48-19.01,2.68,1.81,5.78,2.73,8.9,2.73,4.09,0,8.16-1.56,11.27-4.66,6.22-6.22,6.22-16.32,0-22.54s-16.3-6.22-22.52,0c-2.33,2.33-3.79,5.22-4.38,8.24-6.05-1.95-11.5-5.92-15.2-11.69-8.07-12.54-5.07-29.02,6.5-37.96-13.44-2.3-23.67-14.01-23.67-28.13.02-14.09,10.24-25.77,23.67-28.07-11.57-8.93-14.55-25.42-6.5-37.94,3.7-5.77,9.15-9.76,15.22-11.7,1.41,7.36,7.85,12.91,15.61,12.91,8.8,0,15.93-7.13,15.93-15.93s-7.13-15.93-15.93-15.93c-3.3,0-6.37,1.01-8.92,2.73-2.88-5.65-3.92-12.29-2.48-18.98,3.17-14.58,16.93-24.1,31.45-22.24-7.9-11.14-6.86-26.66,3.12-36.64,9.98-9.96,25.5-11,36.62-3.1-1.87-14.52,7.66-28.3,22.23-31.47,6.7-1.46,13.36-.42,19.03,2.48-4.2,6.21-3.56,14.71,1.92,20.19,3.11,3.1,7.18,4.66,11.27,4.66s8.15-1.56,11.25-4.66c6.22-6.22,6.22-16.32,0-22.54-2.33-2.33-5.21-3.78-8.22-4.37,1.95-6.05,5.94-11.5,11.71-15.21,12.52-8.05,29-5.04,37.94,6.52,2.28-13.43,13.98-23.67,28.08-23.67s25.8,10.23,28.1,23.67c8.95-11.56,25.42-14.57,37.96-6.5,5.76,3.7,9.74,9.15,11.68,15.21-7.34,1.4-12.89,7.86-12.89,15.62,0,8.8,7.12,15.93,15.93,15.93s15.92-7.13,15.92-15.93c0-3.32-1-6.39-2.75-8.93,5.67-2.89,12.31-3.93,19-2.47,14.57,3.15,24.11,16.93,22.23,31.45,11.13-7.89,26.66-6.85,36.63,3.11,9.98,9.97,11.02,25.5,3.12,36.63,14.52-1.88,28.3,7.66,31.45,22.23,1.46,6.69.42,13.35-2.48,19.01-2.53-1.72-5.61-2.73-8.92-2.73-8.78,0-15.91,7.13-15.91,15.93s7.13,15.93,15.91,15.93c7.77,0,14.22-5.55,15.63-12.9,6.07,1.95,11.52,5.92,15.22,11.71,8.07,12.54,5.05,29-6.52,37.96,13.45,2.28,23.67,13.98,23.69,28.06,0,14.1-10.23,25.82-23.67,28.12Z"></path></svg> 