
        <svg xmlns="http://www.w3.org/2000/svg" id="_レイヤー_1" width="500" height="500" viewBox="0 0 500 500">
        <defs>
        <style>.cls-1{fill:#bce2e8;stroke-width:0px;}</style>
        </defs>
        <path class="cls-1" d="M250,17c9.05,0,16.72,6.46,18.24,15.36.67,3.91,3.59,7.05,7.43,8.02.8.2,1.62.3,2.42.3,3.05,0,5.99-1.4,7.91-3.88,3.52-4.55,8.86-7.16,14.65-7.16,3.54,0,6.99,1.02,10,2.95,1.2.77,2.31,1.68,3.29,2.7-5.61,4.79-9.09,11.92-9.09,19.71,0,14.3,11.63,25.93,25.93,25.93s25.92-11.63,25.92-25.93c0-.69-.03-1.37-.08-2.05.09,0,.18,0,.27,0,1.31,0,2.63.14,3.95.43,9.31,2.01,15.65,10.97,14.43,20.39-.51,3.94,1.36,7.81,4.76,9.85,1.59.96,3.37,1.43,5.15,1.43,2.03,0,4.06-.62,5.78-1.84,3.13-2.22,6.82-3.39,10.69-3.39,4.95,0,9.6,1.92,13.09,5.41,6.41,6.4,7.26,16.4,2.03,23.77-2.3,3.24-2.46,7.53-.42,10.94,1.82,3.03,5.09,4.85,8.57,4.85.43,0,.86-.03,1.29-.08.78-.1,1.58-.15,2.37-.15,8.62,0,16.2,6.13,18.03,14.6.31,1.41.45,2.82.43,4.23-.68-.05-1.37-.08-2.06-.08-14.29,0-25.91,11.63-25.91,25.93s11.62,25.93,25.91,25.93c7.8,0,14.93-3.49,19.73-9.11,1.02.99,1.93,2.1,2.71,3.33,5.15,7.99,3.29,18.82-4.23,24.64-3.14,2.43-4.54,6.49-3.58,10.34.96,3.85,4.12,6.77,8.03,7.43,8.89,1.51,15.35,9.17,15.36,18.2,0,9.06-6.46,16.74-15.36,18.26-3.91.67-7.06,3.59-8.02,7.44-.96,3.85.45,7.9,3.58,10.33,7.5,5.8,9.35,16.62,4.2,24.63-.78,1.21-1.68,2.32-2.69,3.3-.45-.52-.91-1.03-1.4-1.52-4.9-4.9-11.41-7.59-18.33-7.59s-13.43,2.7-18.33,7.59c-10.11,10.11-10.11,26.57.01,36.69,4.9,4.89,11.41,7.58,18.33,7.58.69,0,1.37-.03,2.05-.08.02,1.4-.12,2.81-.42,4.21-1.84,8.45-9.43,14.59-18.06,14.59-.78,0-1.57-.05-2.35-.15-.43-.05-.85-.08-1.27-.08-3.48,0-6.75,1.82-8.57,4.85-2.04,3.4-1.88,7.69.42,10.93,5.23,7.37,4.37,17.38-2.03,23.78-3.5,3.49-8.15,5.42-13.09,5.42-3.86,0-7.55-1.17-10.68-3.39-1.73-1.23-3.76-1.85-5.79-1.85-1.78,0-3.56.47-5.15,1.43-3.41,2.04-5.28,5.91-4.77,9.85,1.21,9.43-5.13,18.4-14.42,20.42-1.31.28-2.64.43-3.96.43-.1,0-.19,0-.29,0,.05-.68.08-1.36.08-2.05,0-14.3-11.63-25.93-25.92-25.93s-25.93,11.63-25.93,25.93c0,7.81,3.49,14.93,9.11,19.73-.98,1.02-2.09,1.93-3.32,2.72-3,1.93-6.46,2.95-10,2.95-5.79,0-11.13-2.61-14.66-7.17-1.92-2.48-4.86-3.88-7.91-3.88-.81,0-1.62.1-2.42.3-3.85.96-6.77,4.11-7.43,8.03-1.51,8.89-9.18,15.34-18.27,15.34-9.03-.02-16.68-6.47-18.19-15.35-.67-3.91-3.58-7.06-7.43-8.03-.81-.2-1.62-.3-2.43-.3-3.05,0-5.99,1.4-7.91,3.88-3.52,4.55-8.86,7.16-14.65,7.16-3.54,0-6.99-1.02-10-2.95-1.21-.78-2.31-1.68-3.29-2.69.52-.44,1.02-.91,1.5-1.39,4.9-4.9,7.59-11.41,7.59-18.34s-2.7-13.44-7.59-18.34c-4.9-4.9-11.41-7.59-18.33-7.59s-13.43,2.7-18.33,7.59c-5.51,5.51-8.08,13.02-7.5,20.39-.09,0-.19,0-.28,0-1.36,0-2.67-.14-3.91-.41-.02,0-.03,0-.05-.01-9.31-2.01-15.65-10.98-14.44-20.41.5-3.94-1.37-7.8-4.77-9.85-1.59-.95-3.37-1.42-5.14-1.42-2.03,0-4.06.62-5.79,1.85-3.12,2.21-6.8,3.38-10.67,3.38-4.94,0-9.59-1.92-13.09-5.41-6.41-6.4-7.26-16.4-2.03-23.77,2.3-3.24,2.46-7.53.42-10.94-1.82-3.03-5.09-4.85-8.57-4.85-.43,0-.86.03-1.29.08-.78.1-1.58.15-2.37.15-8.62,0-16.2-6.13-18.03-14.6-.31-1.41-.45-2.82-.43-4.23.68.05,1.36.08,2.04.08,6.92,0,13.43-2.69,18.34-7.59,10.11-10.11,10.11-26.57,0-36.68-4.9-4.9-11.41-7.59-18.33-7.59s-13.43,2.7-18.33,7.59c-.49.49-.96,1-1.4,1.52-1.01-.98-1.91-2.09-2.7-3.31-5.15-8.01-3.31-18.83,4.21-24.64,3.14-2.43,4.55-6.48,3.59-10.33-.96-3.85-4.11-6.77-8.02-7.44-8.9-1.52-15.36-9.21-15.36-18.26.01-9.04,6.47-16.71,15.36-18.23,3.91-.67,7.06-3.59,8.02-7.44.96-3.85-.45-7.91-3.59-10.33-7.5-5.79-9.35-16.6-4.19-24.63.78-1.22,1.69-2.33,2.7-3.31,4.79,5.62,11.92,9.12,19.71,9.12,14.3,0,25.93-11.63,25.93-25.93s-11.63-25.93-25.93-25.93c-.69,0-1.37.03-2.05.08-.02-1.4.12-2.81.42-4.21,1.84-8.46,9.43-14.6,18.06-14.6.78,0,1.57.05,2.35.15.43.05.85.08,1.27.08,3.48,0,6.75-1.82,8.57-4.85,2.04-3.4,1.88-7.69-.42-10.93-5.23-7.37-4.37-17.38,2.03-23.78,3.5-3.49,8.15-5.42,13.09-5.42,3.86,0,7.55,1.17,10.68,3.39,1.73,1.23,3.76,1.85,5.79,1.85,1.78,0,3.56-.47,5.15-1.43,3.41-2.04,5.28-5.91,4.77-9.85-1.21-9.43,5.13-18.4,14.44-20.42,1.3-.28,2.63-.43,3.94-.43.1,0,.21,0,.31,0-.58,7.37,1.99,14.89,7.51,20.41,4.9,4.89,11.41,7.58,18.33,7.58s13.43-2.7,18.32-7.59c10.11-10.11,10.11-26.57,0-36.68-.48-.48-.98-.94-1.49-1.38.99-1.03,2.1-1.94,3.31-2.72,2.99-1.92,6.43-2.93,9.96-2.93,5.71,0,11.19,2.68,14.66,7.16,1.92,2.48,4.86,3.88,7.91,3.88.81,0,1.62-.1,2.43-.3,3.85-.96,6.77-4.11,7.43-8.03,1.51-8.89,9.17-15.34,18.22-15.34M250,7c-14.1,0-25.8,10.24-28.08,23.67-5.54-7.16-13.97-11.04-22.57-11.04-5.27,0-10.61,1.46-15.37,4.52-5.77,3.71-9.76,9.16-11.71,15.21,3.01.59,5.89,2.04,8.22,4.37,6.22,6.22,6.22,16.32,0,22.54-3.1,3.1-7.18,4.66-11.25,4.66s-8.16-1.56-11.27-4.66c-5.48-5.48-6.12-13.98-1.92-20.19-3.95-2.02-8.37-3.14-12.96-3.14-2,0-4.03.21-6.07.66-14.57,3.17-24.1,16.95-22.23,31.47-4.92-3.49-10.69-5.24-16.47-5.24-7.29,0-14.58,2.78-20.15,8.34-9.98,9.98-11.02,25.5-3.12,36.64-1.22-.16-2.42-.23-3.62-.23-13.13,0-24.92,9.11-27.83,22.47-1.44,6.69-.4,13.33,2.48,18.98,2.55-1.72,5.62-2.73,8.92-2.73,8.8,0,15.93,7.13,15.93,15.93s-7.13,15.93-15.93,15.93c-7.76,0-14.2-5.55-15.61-12.91-6.07,1.94-11.52,5.93-15.22,11.7-8.05,12.52-5.07,29.01,6.5,37.94-13.43,2.3-23.65,13.98-23.67,28.07,0,14.12,10.23,25.83,23.67,28.13-11.57,8.94-14.57,25.42-6.5,37.96,3.7,5.77,9.15,9.74,15.2,11.69.59-3.02,2.05-5.91,4.38-8.24,3.11-3.11,7.18-4.66,11.26-4.66s8.15,1.55,11.26,4.66c6.22,6.22,6.22,16.32,0,22.54-3.11,3.1-7.18,4.66-11.27,4.66-3.12,0-6.22-.92-8.9-2.73-2.9,5.66-3.94,12.32-2.48,19.01,2.88,13.34,14.68,22.47,27.8,22.47,1.21,0,2.43-.08,3.65-.24-7.9,11.13-6.86,26.66,3.12,36.63,5.56,5.56,12.86,8.34,20.15,8.34,5.77,0,11.55-1.74,16.46-5.23-1.86,14.52,7.68,28.3,22.25,31.45,2.03.45,4.06.65,6.07.65,4.58,0,8.99-1.12,12.93-3.13-4.2-6.21-3.56-14.71,1.92-20.19,3.11-3.11,7.19-4.67,11.26-4.67s8.15,1.56,11.26,4.67c6.22,6.22,6.22,16.32,0,22.54-2.33,2.33-5.21,3.78-8.23,4.37,1.96,6.04,5.92,11.49,11.68,15.19,4.77,3.07,10.12,4.54,15.4,4.54,8.59,0,17.02-3.88,22.56-11.04,2.28,13.41,13.95,23.64,28.03,23.67.02,0,.04,0,.06,0,14.09,0,25.8-10.21,28.09-23.66,5.55,7.18,13.98,11.06,22.57,11.06,5.29,0,10.64-1.47,15.41-4.55,5.76-3.71,9.74-9.16,11.68-15.23-7.34-1.4-12.89-7.86-12.89-15.62,0-8.8,7.12-15.93,15.93-15.93s15.92,7.13,15.92,15.93c0,3.3-1,6.37-2.71,8.9,3.92,2.01,8.35,3.15,12.92,3.15,2,0,4.03-.21,6.07-.65,14.57-3.17,24.1-16.95,22.23-31.47,4.92,3.49,10.69,5.24,16.47,5.24,7.29,0,14.58-2.78,20.15-8.34,9.98-9.98,11.02-25.5,3.12-36.64,1.22.16,2.42.23,3.62.23,13.13,0,24.92-9.11,27.83-22.46,1.44-6.69.4-13.34-2.48-19.01-2.68,1.83-5.8,2.75-8.92,2.75-4.09,0-8.16-1.56-11.27-4.66-6.22-6.22-6.22-16.32,0-22.54,3.11-3.11,7.18-4.66,11.26-4.66s8.15,1.55,11.26,4.66c2.33,2.33,3.79,5.24,4.38,8.25,6.05-1.96,11.5-5.93,15.2-11.7,8.05-12.52,5.07-28.99-6.5-37.94,13.44-2.3,23.67-14.02,23.67-28.12-.02-14.08-10.24-25.78-23.69-28.06,11.57-8.96,14.59-25.42,6.52-37.96-3.7-5.79-9.15-9.76-15.22-11.71-1.41,7.35-7.86,12.9-15.63,12.9-8.78,0-15.91-7.13-15.91-15.93s7.13-15.93,15.91-15.93c3.31,0,6.39,1.01,8.92,2.73,2.9-5.66,3.94-12.32,2.48-19.01-2.88-13.34-14.68-22.47-27.8-22.47-1.21,0-2.43.08-3.65.24,7.9-11.13,6.86-26.66-3.12-36.63-5.56-5.56-12.86-8.34-20.16-8.34-5.78,0-11.55,1.74-16.47,5.23,1.88-14.52-7.66-28.3-22.23-31.45-2.03-.44-4.06-.66-6.06-.66-4.58,0-8.99,1.12-12.94,3.13,1.75,2.54,2.75,5.61,2.75,8.93,0,8.8-7.14,15.93-15.92,15.93s-15.93-7.13-15.93-15.93c0-7.76,5.55-14.22,12.89-15.62-1.94-6.06-5.92-11.51-11.68-15.21-4.77-3.07-10.12-4.54-15.4-4.54-8.59,0-17.02,3.88-22.56,11.04-2.3-13.44-14-23.67-28.1-23.67h0Z">
        </path>
        </svg> 
