<?xml version="1.0" standalone="no"?>
<!DOCTYPE svg PUBLIC "-//W3C//DTD SVG 20010904//EN"
 "http://www.w3.org/TR/2001/REC-SVG-20010904/DTD/svg10.dtd">
<svg version="1.0" xmlns="http://www.w3.org/2000/svg"
 width="768.000000pt" height="1024.000000pt" viewBox="0 0 768.000000 1024.000000"
 preserveAspectRatio="xMidYMid meet">

<g transform="translate(0.000000,1024.000000) scale(0.100000,-0.100000)"
fill="#000000" stroke="none">
<path d="M4685 9915 c-93 -24 -339 -109 -480 -165 -131 -52 -301 -134 -583
-282 -269 -141 -1271 -655 -1392 -714 -36 -18 -117 -53 -180 -79 -202 -82
-321 -172 -348 -263 -7 -22 -12 -67 -12 -101 0 -51 6 -74 36 -133 20 -40 48
-90 62 -112 14 -23 63 -110 110 -195 46 -85 116 -205 156 -265 146 -222 183
-283 228 -371 108 -215 307 -515 393 -594 58 -52 106 -71 184 -71 69 0 123 22
641 263 272 126 365 167 518 228 147 59 331 150 461 229 53 32 146 84 207 118
60 33 157 89 215 124 190 118 602 354 724 416 195 99 222 140 186 281 -36 144
-75 226 -371 786 -200 377 -440 784 -503 853 -62 68 -127 80 -252 47z m-648
-1399 c18 -28 37 -75 43 -105 6 -31 20 -84 32 -119 38 -117 9 -140 -118 -93
l-80 29 -12 -58 c-24 -112 -103 -188 -262 -249 -89 -35 -144 -39 -180 -14 -37
25 -41 34 -34 74 l5 37 -44 -5 -44 -5 -18 46 c-15 39 -16 52 -6 93 15 58 83
166 125 198 83 62 204 81 301 45 96 -34 91 -36 147 70 27 52 55 98 61 102 25
17 53 1 84 -46z"/>
<path d="M3440 8196 c0 -19 -5 -26 -19 -26 -11 0 -23 -4 -26 -10 -3 -6 5 -10
19 -10 18 0 26 -6 29 -22 l4 -23 2 23 c1 18 7 22 39 23 l37 1 -32 10 c-21 7
-33 17 -33 29 0 10 -4 21 -10 24 -6 4 -10 -5 -10 -19z"/>
<path d="M1835 5568 c-70 -73 -90 -101 -157 -233 -137 -268 -235 -533 -269
-725 -11 -63 -31 -160 -44 -215 -76 -316 -102 -511 -115 -875 -19 -523 -11
-923 25 -1161 8 -56 20 -152 25 -213 6 -60 24 -191 40 -291 53 -329 92 -665
110 -930 9 -145 -3 -432 -29 -709 -10 -99 -7 -119 18 -114 10 2 19 18 23 43
14 82 42 545 40 670 -4 217 -61 743 -118 1080 -14 83 -29 197 -35 255 -5 58
-21 187 -35 287 -22 162 -25 214 -24 495 0 483 12 833 32 933 6 28 10 62 9 77
-2 48 75 448 92 475 3 4 15 67 27 138 26 161 37 199 111 396 48 130 118 283
168 369 5 8 16 31 25 50 9 19 22 44 28 55 24 37 109 138 131 155 97 75 203
-25 253 -240 10 -41 22 -78 27 -81 5 -4 13 -60 18 -125 5 -66 13 -131 18 -146
9 -24 7 -28 -21 -37 -17 -6 -42 -22 -56 -37 l-26 -25 13 -97 c7 -53 17 -130
21 -170 5 -41 12 -82 15 -93 8 -24 -14 -25 -57 -3 -36 19 -112 22 -149 7 -39
-17 -106 -178 -121 -289 -9 -73 -8 -102 7 -188 22 -126 30 -147 129 -331 91
-168 168 -259 251 -296 l47 -21 -6 -46 c-17 -135 -27 -341 -22 -452 4 -69 9
-224 12 -346 l6 -221 -45 -17 c-95 -36 -220 -155 -273 -259 -18 -35 -29 -47
-42 -43 -39 11 -144 27 -149 22 -8 -7 11 -14 87 -29 46 -9 64 -18 63 -28 -1
-8 -10 -52 -20 -99 l-18 -85 -102 3 c-64 2 -103 -1 -103 -7 0 -6 42 -11 102
-13 l101 -3 4 -100 c1 -55 5 -116 8 -136 6 -42 4 -43 -103 -55 -34 -4 -65 -11
-68 -15 -7 -11 14 -11 100 1 38 6 71 9 73 7 2 -2 10 -30 19 -62 36 -142 167
-346 286 -446 140 -119 246 -179 313 -179 42 0 46 2 43 23 -2 17 -11 23 -43
28 -51 7 -90 27 -190 99 -89 64 -176 149 -231 225 -48 66 -122 221 -133 278
l-8 45 91 11 c50 7 153 15 229 18 76 3 141 11 144 16 8 13 -254 3 -375 -14
-46 -6 -86 -8 -90 -5 -3 4 -8 63 -10 131 l-4 125 28 -5 c16 -2 96 -14 177 -25
82 -12 155 -24 163 -27 8 -3 14 0 14 5 0 15 -18 19 -185 42 -206 28 -197 25
-191 58 22 113 28 139 35 151 7 11 34 8 152 -19 79 -18 171 -40 203 -51 59
-18 85 -17 56 2 -20 12 -63 24 -242 65 -83 18 -153 35 -154 37 -9 9 84 132
135 180 97 89 132 102 286 103 121 0 130 2 130 19 0 25 -30 33 -131 34 l-82 1
-7 178 c-4 97 -8 294 -9 437 0 216 3 285 21 405 12 80 27 188 33 240 8 56 29
142 52 210 22 63 42 123 45 133 4 13 -1 20 -16 24 -16 4 -20 11 -16 24 4 11
-2 31 -13 47 -35 49 -120 247 -151 349 -16 55 -37 156 -46 224 -9 68 -20 144
-25 169 -18 87 -18 87 48 79 144 -18 449 -114 560 -176 35 -19 62 -36 60 -38
-2 -2 -48 1 -103 7 -150 15 -408 5 -440 -16 -31 -21 -28 -42 6 -38 13 2 114 5
224 8 l200 4 -124 -60 c-132 -64 -231 -131 -231 -156 0 -28 28 -25 73 9 63 48
160 100 261 141 88 36 156 58 156 50 0 -2 -30 -19 -67 -38 -89 -44 -178 -111
-253 -187 -62 -64 -72 -85 -44 -96 10 -4 29 10 57 40 60 66 153 143 215 179
29 16 55 29 57 27 1 -2 -25 -40 -60 -84 -35 -44 -91 -124 -125 -178 -51 -80
-60 -100 -50 -112 17 -21 25 -13 87 82 53 82 183 257 250 337 18 22 33 47 33
56 0 20 -150 111 -250 153 -95 39 -294 102 -373 118 -83 16 -74 21 93 51 220
40 621 21 798 -38 40 -13 80 -24 90 -24 9 0 48 15 87 34 76 37 140 60 197 71
l35 7 -4 -309 c-4 -297 -3 -309 16 -340 17 -27 27 -33 56 -33 65 0 60 -31 81
540 3 79 6 146 8 147 7 8 127 19 137 12 8 -5 8 -36 0 -125 -14 -144 -4 -463
16 -511 18 -44 47 -59 77 -39 32 21 36 50 40 321 2 132 4 264 5 294 l1 54 93
-6 c109 -8 139 -15 130 -31 -4 -6 -10 -85 -14 -176 -4 -91 -11 -213 -15 -271
-8 -130 -1 -176 30 -190 34 -16 64 4 88 59 17 37 21 70 23 167 1 66 8 181 16
256 14 152 7 142 89 125 63 -13 254 -77 288 -97 l33 -19 117 36 c433 134 500
152 607 163 133 14 304 14 393 2 37 -6 102 -13 145 -16 42 -4 77 -11 77 -16 0
-5 -6 -9 -14 -9 -40 0 -337 -109 -451 -165 -124 -61 -264 -152 -350 -228 l-40
-35 120 -123 c66 -68 136 -149 155 -179 19 -30 39 -58 44 -62 15 -10 36 11 29
30 -14 37 -126 183 -179 231 -30 28 -53 51 -49 51 24 0 125 -63 193 -121 45
-38 86 -69 92 -69 5 0 10 9 10 19 0 26 -67 90 -160 153 l-75 51 76 -6 c48 -3
116 -18 184 -41 103 -35 139 -37 120 -6 -16 26 -210 89 -282 91 -20 1 -8 8 47
27 68 24 89 26 228 27 137 0 152 2 152 17 0 26 -40 33 -170 32 -125 -1 -174
-11 -323 -70 -48 -20 -93 -34 -98 -32 -13 4 123 102 226 161 44 26 125 65 180
87 92 38 412 140 437 140 14 0 3 -106 -23 -225 -31 -140 -178 -607 -209 -666
-8 -13 -7 -19 1 -19 7 0 9 -15 5 -47 -4 -27 -13 -127 -21 -223 -24 -290 -34
-381 -49 -475 -8 -49 -18 -121 -21 -160 -6 -64 -32 -219 -87 -530 -12 -66 -21
-128 -22 -137 0 -14 -9 -18 -37 -18 -54 0 -91 -16 -87 -38 3 -15 14 -17 98
-14 84 2 105 -1 177 -26 152 -54 261 -136 346 -262 34 -49 48 -42 -238 -125
-205 -59 -371 -115 -393 -131 -30 -22 -8 -23 38 -3 40 18 362 118 525 164 33
9 68 18 77 21 14 4 21 -9 39 -66 12 -39 19 -73 17 -76 -3 -2 -63 -20 -134 -40
-416 -113 -464 -128 -464 -145 0 -12 -3 -12 60 10 30 11 125 38 210 61 85 23
193 53 239 66 47 13 87 21 90 18 3 -3 8 -47 9 -97 l4 -92 -134 -23 c-73 -12
-207 -35 -297 -50 -91 -15 -166 -33 -168 -39 -4 -11 1 -11 336 48 123 21 230
39 237 39 44 0 -19 -219 -98 -342 -47 -73 -155 -197 -205 -235 -49 -38 -189
-73 -289 -73 -67 0 -83 -3 -88 -17 -12 -30 12 -38 101 -35 l85 2 67 -67 c37
-38 94 -109 128 -159 64 -96 189 -337 242 -465 17 -42 38 -85 45 -95 14 -18
15 -18 26 7 11 24 7 38 -31 125 -62 142 -192 385 -251 470 -27 40 -76 102
-109 138 l-59 64 48 12 c66 16 118 49 183 117 161 166 222 283 275 528 l9 40
77 10 c42 6 80 14 85 19 7 8 -26 5 -129 -10 l-38 -6 0 39 c0 21 -3 67 -6 103
l-6 65 63 14 c35 8 57 16 48 18 -9 2 -35 -1 -60 -6 -24 -5 -45 -9 -46 -7 -3 3
-43 142 -43 149 0 2 26 10 58 17 62 15 42 26 -23 13 l-39 -9 -24 47 c-34 69
-155 189 -233 233 -69 37 -195 86 -226 86 -43 1 -43 9 -12 180 16 91 38 215
49 275 11 61 25 153 30 205 6 52 20 156 30 230 20 143 60 586 60 667 0 29 13
85 34 143 39 110 136 428 165 545 26 106 41 232 33 275 -7 31 -13 37 -57 51
-97 33 -307 54 -515 52 -274 -2 -297 -7 -720 -139 -96 -31 -184 -53 -195 -50
-11 2 -58 19 -105 36 -216 80 -457 124 -750 136 -265 10 -448 -19 -603 -97
l-57 -29 -88 26 c-138 40 -324 57 -557 51 -180 -4 -241 -11 -393 -43 -18 -4
-32 -3 -30 2 1 5 -2 52 -6 104 -18 223 -82 426 -160 508 -44 47 -77 62 -138
62 l-53 0 -80 -82z"/>
<path d="M4894 3646 c-44 -19 -120 -110 -159 -191 -47 -96 -69 -218 -68 -381
0 -205 35 -356 95 -411 59 -54 212 -67 283 -23 37 23 107 115 145 189 30 60
52 171 52 267 0 95 -36 298 -65 369 -63 154 -177 227 -283 181z m-49 -152
c-20 -53 -25 -85 -25 -160 0 -125 28 -212 86 -270 103 -104 180 -71 244 104
13 34 26 65 31 67 15 10 22 -147 10 -232 -17 -118 -85 -253 -161 -317 -27 -22
-41 -26 -96 -26 -144 0 -183 49 -213 263 -20 144 -4 359 34 467 20 58 94 170
112 170 1 0 -8 -30 -22 -66z"/>
<path d="M3444 3600 c-66 -15 -149 -104 -198 -210 -60 -130 -78 -410 -41 -605
34 -174 88 -223 245 -224 90 -1 120 14 180 90 128 162 158 335 106 601 -38
197 -99 299 -203 344 -35 15 -43 16 -89 4z m-80 -162 c-44 -131 -29 -297 37
-404 25 -40 94 -84 134 -84 44 0 97 62 131 153 16 42 31 77 35 77 13 0 19
-160 9 -236 -14 -101 -63 -205 -133 -281 -48 -51 -57 -56 -104 -60 -70 -7
-146 19 -177 60 -42 56 -61 170 -60 362 1 186 14 268 60 358 22 45 80 127 89
127 2 0 -7 -32 -21 -72z"/>
<path d="M4073 2623 c-18 -45 -33 -137 -33 -215 0 -72 21 -98 79 -98 34 0 45
6 75 42 20 23 36 46 36 52 0 22 20 -20 20 -42 0 -38 55 -82 101 -82 32 0 42 6
65 35 37 49 53 100 54 172 0 68 -24 143 -45 143 -24 0 -26 -18 -10 -66 24 -72
5 -182 -39 -223 -20 -19 -28 -21 -45 -12 -32 17 -38 38 -46 144 -6 84 -10 97
-25 97 -13 0 -21 -13 -30 -50 -7 -27 -30 -77 -51 -111 -31 -48 -44 -60 -62
-57 -20 3 -22 9 -25 85 -2 61 2 96 18 142 25 75 25 81 -1 81 -14 0 -25 -11
-36 -37z"/>
<path d="M3665 341 c-142 -26 -430 -116 -578 -180 -92 -40 -231 -141 -215
-156 3 -3 544 -4 1204 -3 l1199 3 -23 21 c-85 80 -481 234 -602 234 -25 0 -74
7 -110 16 -304 73 -681 101 -875 65z"/>
</g>
</svg>
